<svg version="1.1" xmlns="http://www.w3.org/2000/svg" xmlns:xlink="http://www.w3.org/1999/xlink" width="362.57715" height="97.23" viewBox="0,0,362.57715,97.23"><g transform="translate(-60.16624,-131.385)"><g data-paper-data="{&quot;isPaintingLayer&quot;:true}" fill-rule="nonzero" stroke-width="0" stroke-linecap="butt" stroke-linejoin="miter" stroke-miterlimit="4" stroke-dasharray="" stroke-dashoffset="0" style="mix-blend-mode: normal"><path d="M75.96624,177.655c0,-17.67311 14.32689,-32 32,-32c17.67311,0 32,14.32689 32,32c0,17.67311 -14.32689,32 -32,32c-17.67311,0 -32,-14.32689 -32,-32z" data-paper-data="{&quot;index&quot;:null}" fill="#c1c1c1" stroke="#ad5c5c"/><path d="M102.51624,150.435c0,-8.61564 6.98436,-15.6 15.6,-15.6c8.61564,0 15.6,6.98436 15.6,15.6c0,8.61564 -6.98436,15.6 -15.6,15.6c-8.61564,0 -15.6,-6.98436 -15.6,-15.6z" data-paper-data="{&quot;index&quot;:null}" fill="#919191" stroke="#000000"/><path d="M60.16624,189.985c0,-8.61564 6.98436,-15.6 15.6,-15.6c8.61564,0 15.6,6.98436 15.6,15.6c0,8.61564 -6.98436,15.6 -15.6,15.6c-8.61564,0 -15.6,-6.98436 -15.6,-15.6z" data-paper-data="{&quot;index&quot;:null}" fill="#919191" stroke="#000000"/><path d="M111.55624,208.665c0,-8.61564 6.98436,-15.6 15.6,-15.6c8.61564,0 15.6,6.98436 15.6,15.6c0,8.61564 -6.98436,15.6 -15.6,15.6c-8.61564,0 -15.6,-6.98436 -15.6,-15.6z" data-paper-data="{&quot;index&quot;:null}" fill="#919191" stroke="#000000"/><path d="M60.33624,161.335c0,-3.53462 2.86538,-6.4 6.4,-6.4c3.53462,0 6.4,2.86538 6.4,6.4c0,3.53462 -2.86538,6.4 -6.4,6.4c-3.53462,0 -6.4,-2.86538 -6.4,-6.4z" data-paper-data="{&quot;index&quot;:null}" fill="#919191" stroke="#000000"/><path d="M72.02624,144.715c0,-3.53462 2.86538,-6.4 6.4,-6.4c3.53462,0 6.4,2.86538 6.4,6.4c0,3.53462 -2.86538,6.4 -6.4,6.4c-3.53462,0 -6.4,-2.86538 -6.4,-6.4z" data-paper-data="{&quot;index&quot;:null}" fill="#919191" stroke="#000000"/><path d="M88.79624,137.785c0,-3.53462 2.86538,-6.4 6.4,-6.4c3.53462,0 6.4,2.86538 6.4,6.4c0,3.53462 -2.86538,6.4 -6.4,6.4c-3.53462,0 -6.4,-2.86538 -6.4,-6.4z" data-paper-data="{&quot;index&quot;:null}" fill="#919191" stroke="#000000"/><path d="M143.77624,192.845c0,-3.75554 3.04446,-6.8 6.8,-6.8c3.75554,0 6.8,3.04446 6.8,6.8c0,3.75554 -3.04446,6.8 -6.8,6.8c-3.75554,0 -6.8,-3.04446 -6.8,-6.8z" data-paper-data="{&quot;index&quot;:null}" fill="#919191" stroke="#000000"/><path d="M143.77624,173.535c0,-3.75554 3.04446,-6.8 6.8,-6.8c3.75554,0 6.8,3.04446 6.8,6.8c0,3.75554 -3.04446,6.8 -6.8,6.8c-3.75554,0 -6.8,-3.04446 -6.8,-6.8z" data-paper-data="{&quot;index&quot;:null}" fill="#919191" stroke="#000000"/><path d="M142.21624,154.855c0,-3.75554 3.04446,-6.8 6.8,-6.8c3.75554,0 6.8,3.04446 6.8,6.8c0,3.75554 -3.04446,6.8 -6.8,6.8c-3.75554,0 -6.8,-3.04446 -6.8,-6.8z" data-paper-data="{&quot;index&quot;:null}" fill="#919191" stroke="#000000"/><path d="M76.81624,216.205c0,-3.75554 3.04446,-6.8 6.8,-6.8c3.75554,0 6.8,3.04446 6.8,6.8c0,3.75554 -3.04446,6.8 -6.8,6.8c-3.75554,0 -6.8,-3.04446 -6.8,-6.8z" data-paper-data="{&quot;index&quot;:null}" fill="#919191" stroke="#000000"/><path d="M95.18624,221.815c0,-3.75554 3.04446,-6.8 6.8,-6.8c3.75554,0 6.8,3.04446 6.8,6.8c0,3.75554 -3.04446,6.8 -6.8,6.8c-3.75554,0 -6.8,-3.04446 -6.8,-6.8z" data-paper-data="{&quot;index&quot;:null}" fill="#919191" stroke="#000000"/><text transform="translate(166.59896,198.195) scale(2.90963,2.90963)" font-size="18" xml:space="preserve" data-paper-data="{&quot;index&quot;:null}" fill="#000000" fill-rule="nonzero" stroke="#000000" stroke-width="0" stroke-linecap="butt" stroke-linejoin="miter" stroke-miterlimit="4" stroke-dasharray="" stroke-dashoffset="0" font-family="Ubuntu" font-weight="normal" text-anchor="start" style="mix-blend-mode: normal"><tspan x="0" dy="0">vanubuntu</tspan></text></g></g></svg>