<svg version="1.1" xmlns="http://www.w3.org/2000/svg" xmlns:xlink="http://www.w3.org/1999/xlink" width="331.09451" height="331.01" viewBox="0,0,331.09451,331.01"><g transform="translate(-74.45274,-14.495)"><g data-paper-data="{&quot;isPaintingLayer&quot;:true}" fill-rule="nonzero" stroke-width="0" stroke-linecap="butt" stroke-linejoin="miter" stroke-miterlimit="4" stroke-dasharray="" stroke-dashoffset="0" style="mix-blend-mode: normal"><path d="M128.864,172.24256c0,-60.05434 48.68366,-108.73799 108.73799,-108.73799c60.05434,0 108.73799,48.68366 108.73799,108.73799c0,60.05434 -48.68366,108.73799 -108.73799,108.73799c-60.05434,0 -108.73799,-48.68366 -108.73799,-108.73799z" fill="#c1c1c1" stroke="#ad5c5c"/><path d="M219.00948,79.34341c0,-29.40484 23.83733,-53.24218 53.24218,-53.24218c29.40484,0 53.24218,23.83733 53.24218,53.24218c0,29.40484 -23.83733,53.24218 -53.24218,53.24218c-29.40484,0 -53.24218,-23.83733 -53.24218,-53.24218z" fill="#919191" stroke="#000000"/><path d="M74.45274,214.33627c0,-29.40484 23.83733,-53.24218 53.24218,-53.24218c29.40484,0 53.24218,23.83733 53.24218,53.24218c0,29.40484 -23.83733,53.24218 -53.24218,53.24218c-29.40484,0 -53.24218,-23.83733 -53.24218,-53.24218z" fill="#919191" stroke="#000000"/><path d="M249.83501,278.11421c0,-29.40484 23.83733,-53.24218 53.24218,-53.24218c29.40484,0 53.24218,23.83733 53.24218,53.24218c0,29.40484 -23.83733,53.24218 -53.24218,53.24218c-29.40484,0 -53.24218,-23.83733 -53.24218,-53.24218z" fill="#919191" stroke="#000000"/><path d="M74.61472,116.54251c0,-12.29091 9.96375,-22.25467 22.25467,-22.25467c12.29091,0 22.25467,9.96375 22.25467,22.25467c0,12.29091 -9.96375,22.25467 -22.25467,22.25467c-12.29091,0 -22.25467,-9.96375 -22.25467,-22.25467z" fill="#919191" stroke="#000000"/><path d="M114.80693,59.83536c0,-12.13533 9.83763,-21.97296 21.97296,-21.97296c12.13533,0 21.97296,9.83763 21.97296,21.97296c0,12.13533 -9.83763,21.97296 -21.97296,21.97296c-12.13533,0 -21.97296,-9.83763 -21.97296,-21.97296z" fill="#919191" stroke="#000000"/><path d="M172.33102,36.18626c0,-11.97975 9.71151,-21.69126 21.69126,-21.69126c11.97975,0 21.69126,9.71151 21.69126,21.69126c0,11.97975 -9.71151,21.69126 -21.69126,21.69126c-11.97975,0 -21.69126,-9.71151 -21.69126,-21.69126z" fill="#919191" stroke="#000000"/><path d="M360.47451,224.11847c0,-12.44649 10.08988,-22.53637 22.53637,-22.53637c12.44649,0 22.53637,10.08988 22.53637,22.53637c0,12.44649 -10.08988,22.53637 -22.53637,22.53637c-12.44649,0 -22.53637,-10.08988 -22.53637,-22.53637z" fill="#919191" stroke="#000000"/><path d="M360.47451,158.21367c0,-12.44649 10.08988,-22.53637 22.53637,-22.53637c12.44649,0 22.53637,10.08988 22.53637,22.53637c0,12.44649 -10.08988,22.53637 -22.53637,22.53637c-12.44649,0 -22.53637,-10.08988 -22.53637,-22.53637z" fill="#919191" stroke="#000000"/><path d="M355.16438,94.43574c0,-12.44649 10.08988,-22.53637 22.53637,-22.53637c12.44649,0 22.53637,10.08988 22.53637,22.53637c0,12.44649 -10.08988,22.53637 -22.53637,22.53637c-12.44649,0 -22.53637,-10.08988 -22.53637,-22.53637z" fill="#919191" stroke="#000000"/><path d="M131.94162,303.83384c0,-12.44649 10.08988,-22.53637 22.53637,-22.53637c12.44649,0 22.53637,10.08988 22.53637,22.53637c0,12.44649 -10.08988,22.53637 -22.53637,22.53637c-12.44649,0 -22.53637,-10.08988 -22.53637,-22.53637z" fill="#919191" stroke="#000000"/><path d="M194.65612,322.96863c0,-12.44649 10.08988,-22.53637 22.53637,-22.53637c12.44649,0 22.53637,10.08988 22.53637,22.53637c0,12.44649 -10.08988,22.53637 -22.53637,22.53637c-12.44649,0 -22.53637,-10.08988 -22.53637,-22.53637z" fill="#919191" stroke="#000000"/></g></g></svg>